<svg t="1754375485998" class="icon" viewBox="0 0 1024 1024" version="1.1" xmlns="http://www.w3.org/2000/svg"
				p-id="19241">
				<path
					d="M157.458347 901.589333h2.752c10.986667-0.554667 20.885333-5.482667 28.032-13.738666l344.682666-394.154667c7.146667-8.234667 10.453333-18.688 9.898667-29.674667a39.381333 39.381333 0 0 0-13.76-28.053333l-117.077333-102.784a40.234667 40.234667 0 0 0-57.173334 3.84L10.130347 731.178667a40.234667 40.234667 0 0 0 3.84 57.173333l117.098666 103.338667a41.173333 41.173333 0 0 0 26.389334 9.898666zM444.96768 470.613333L153.618347 803.754667 97.533013 754.816l291.349334-333.12 56.085333 48.917333z"
					fill="#333333" p-id="19242"></path>
				<path
					d="M462.05568 431.573333c11.541333 0 22.549333-4.949333 30.784-13.738666l172.629333-197.333334 32.426667 28.586667a40.234667 40.234667 0 0 0 57.173333-3.861333 40.234667 40.234667 0 0 0-3.84-57.173334l-63.232-55.530666a40.234667 40.234667 0 0 0-57.173333 3.84L431.826347 363.989333a40.234667 40.234667 0 0 0 3.84 57.173334c7.701333 7.146667 17.066667 10.453333 26.389333 10.453333z m380.416-185.813333l-61.013333 69.824 181.973333 106.090667-120.96-175.893334z m0-61.013333h3.306667a62.186667 62.186667 0 0 1 46.72 26.389333l120.938666 175.914667a61.269333 61.269333 0 0 1-5.504 75.861333 61.226667 61.226667 0 0 1-44.522666 19.242667c-10.453333 0-20.906667-2.752-30.784-8.256l-181.973334-106.090667a59.477333 59.477333 0 0 1-29.12-42.88c-2.752-18.133333 2.197333-36.266667 14.293334-50.026667l61.013333-69.802666a61.994667 61.994667 0 0 1 45.632-20.352z"
					fill="#333333" p-id="19243"></path>
			</svg>